<svg width="165" height="27" viewBox="0 0 165 27" fill="none" xmlns="http://www.w3.org/2000/svg">
<path fill-rule="evenodd" clip-rule="evenodd" d="M28.8527 8.5671C28.8588 8.55734 28.8648 8.54758 28.8701 8.53734L28.8721 8.53398C28.872 8.53398 28.8719 8.53382 28.8719 8.53376C28.9044 8.471 28.9231 8.40016 28.9231 8.32487C28.9231 8.15615 28.8307 8.00905 28.6933 7.92872C28.6919 7.92726 28.6903 7.92477 28.6888 7.92395C25.797 6.37132 21.9357 6.73837 19.3787 9.32731C17.9434 10.7806 17.2104 12.6499 17.1727 14.5283H17.1702V21.9031C17.1702 21.9031 17.1702 21.9031 17.1702 21.9032C17.1702 22.1576 17.3798 22.364 17.6385 22.364H19.8238C20.0823 22.364 20.2921 22.1576 20.2921 21.9032C20.2921 21.9031 20.2921 21.9031 20.2921 21.9031V14.682H20.2932C20.2931 13.5241 20.7324 12.365 21.6171 11.4693C23.1961 9.87046 25.5272 9.7504 27.1344 10.5922C27.1394 10.5949 27.1446 10.5973 27.1497 10.5999C27.1533 10.6018 27.157 10.6035 27.1606 10.6055L27.1611 10.6054C27.2219 10.6338 27.2898 10.6502 27.3617 10.6502C27.5445 10.6502 27.7025 10.5468 27.7796 10.3965L28.8527 8.5671Z" fill="#4338CA"/>
<path fill-rule="evenodd" clip-rule="evenodd" d="M7.80452 7C3.49433 7 0 10.4392 0 14.682V26.5124C0 26.7667 0.209581 26.9732 0.468282 26.9732H2.65358C2.65363 26.9732 2.65363 26.9732 2.65363 26.9732C2.91222 26.9732 3.12186 26.7667 3.12186 26.5124V20.8279C4.42627 21.7924 6.04758 22.364 7.80457 22.364C12.1147 22.364 15.6094 18.9247 15.6094 14.6821C15.6094 10.4393 12.1147 7 7.80452 7ZM7.80457 19.2912C5.21845 19.2912 3.12186 17.2275 3.12186 14.682C3.12186 12.1363 5.21845 10.0728 7.80457 10.0728C10.3906 10.0728 12.4874 12.1363 12.4874 14.682C12.4874 17.2275 10.3906 19.2912 7.80457 19.2912Z" fill="#4338CA"/>
<path fill-rule="evenodd" clip-rule="evenodd" d="M53.8288 7C49.5187 7 46.0243 10.4392 46.0243 14.682V26.5124C46.0243 26.7667 46.2339 26.9731 46.4926 26.9732H48.6779C48.9365 26.9732 49.1462 26.7667 49.1462 26.5124V20.828C50.4506 21.7924 52.0719 22.364 53.8289 22.364C58.139 22.364 61.6337 18.9247 61.6337 14.6821C61.6337 10.4393 58.139 7 53.8288 7ZM53.8289 19.2912C51.2427 19.2912 49.1462 17.2276 49.1462 14.682C49.1462 12.1363 51.2427 10.0728 53.8289 10.0728C56.4149 10.0728 58.5117 12.1363 58.5117 14.682C58.5117 17.2276 56.4149 19.2912 53.8289 19.2912Z" fill="#4338CA"/>
<path fill-rule="evenodd" clip-rule="evenodd" d="M44.4094 14.8356C44.4094 10.5928 40.9147 7 36.6045 7C32.2943 7 28.8 10.4393 28.8 14.6821C28.8 18.9247 32.2943 22.364 36.6045 22.364C39.0443 22.364 41.0567 21.2635 42.3189 19.9136C42.3191 19.9135 42.3192 19.9133 42.3193 19.9132C42.3203 19.9121 42.3213 19.9112 42.3223 19.9101V19.91C42.4051 19.8268 42.4562 19.7131 42.4562 19.5876C42.4562 19.4549 42.3988 19.3357 42.3077 19.2515V19.2509L42.3011 19.2456C42.2892 19.2351 42.2769 19.2251 42.2639 19.2158L40.5942 17.8782C40.5118 17.8069 40.404 17.7634 40.2857 17.7634C40.1385 17.7634 40.0074 17.8302 39.9216 17.9346C39.1801 18.6777 38.0072 19.2911 36.6047 19.2911C34.0185 19.2911 31.9219 17.2275 31.9219 14.6818C31.9219 12.1362 34.0185 10.0727 36.6047 10.0727C38.6433 10.0727 40.3769 11.3555 41.02 13.1455H36.9948C36.7361 13.1455 36.5265 13.3519 36.5265 13.6064L36.5264 15.7573C36.5264 16.0118 36.7361 16.2183 36.9948 16.2183H43.785C43.7978 16.2183 43.8104 16.2173 43.8229 16.2164C43.8355 16.2174 43.848 16.2183 43.8608 16.2183C44.0687 16.2183 44.2448 16.0847 44.3059 15.9001L44.3112 15.901C44.3139 15.8843 44.3165 15.8683 44.3191 15.8522C44.3225 15.8365 44.325 15.8206 44.3267 15.8043C44.3808 15.4608 44.4094 15.2157 44.4094 14.8356Z" fill="#4338CA"/>
<path fill-rule="evenodd" clip-rule="evenodd" d="M74.8944 8.53662L74.8964 8.53326C74.8963 8.53326 74.8962 8.5331 74.8961 8.53305C74.9287 8.47028 74.9474 8.39944 74.9474 8.32416C74.9474 8.15543 74.855 8.00833 74.7176 7.92801C74.7161 7.92654 74.7145 7.92405 74.7131 7.92324C71.8212 6.37061 67.9599 6.7376 65.403 9.3266C63.9677 10.7799 63.2347 12.6492 63.197 14.5276H63.1945V21.9024C63.1945 21.9024 63.1945 21.9024 63.1945 21.9025C63.1945 22.1568 63.4041 22.3633 63.6628 22.3633H65.8481C66.1067 22.3633 66.3164 22.1568 66.3164 21.9025C66.3164 21.9024 66.3164 21.9024 66.3164 21.9024V14.6813H66.3176C66.3175 13.5234 66.7568 12.3643 67.6414 11.4685C69.2205 9.86974 71.5515 9.74969 73.1588 10.5915C73.1638 10.5942 73.1689 10.5966 73.174 10.5992C73.1776 10.6011 73.1813 10.6028 73.1849 10.6048L73.1854 10.6046C73.2463 10.6331 73.3141 10.6495 73.3861 10.6495C73.5688 10.6495 73.7268 10.5461 73.804 10.3958L74.877 8.56638C74.8831 8.55662 74.889 8.54681 74.8944 8.53662Z" fill="#4338CA"/>
<path d="M92.2912 20V6.90909H97.2003C98.206 6.90909 99.0497 7.09659 99.7315 7.47159C100.418 7.84659 100.935 8.36222 101.285 9.01847C101.638 9.67045 101.815 10.4119 101.815 11.2429C101.815 12.0824 101.638 12.8281 101.285 13.4801C100.931 14.1321 100.409 14.6456 99.7188 15.0206C99.0284 15.3913 98.1783 15.5767 97.1683 15.5767H93.9148V13.6271H96.8487C97.4368 13.6271 97.9183 13.5249 98.2933 13.3203C98.6683 13.1158 98.9453 12.8345 99.1243 12.4766C99.3075 12.1186 99.3991 11.7074 99.3991 11.2429C99.3991 10.7784 99.3075 10.3693 99.1243 10.0156C98.9453 9.66193 98.6662 9.38707 98.2869 9.19105C97.9119 8.99077 97.4283 8.89062 96.8359 8.89062H94.6626V20H92.2912ZM106.422 20.1982C105.8 20.1982 105.24 20.0874 104.741 19.8658C104.247 19.6399 103.855 19.3075 103.565 18.8686C103.28 18.4297 103.137 17.8885 103.137 17.245C103.137 16.6911 103.239 16.233 103.444 15.8707C103.648 15.5085 103.927 15.2188 104.281 15.0014C104.635 14.7841 105.033 14.62 105.476 14.5092C105.924 14.3942 106.386 14.3111 106.863 14.2599C107.439 14.2003 107.905 14.147 108.263 14.1001C108.621 14.049 108.881 13.9723 109.043 13.87C109.209 13.7635 109.292 13.5994 109.292 13.3778V13.3395C109.292 12.858 109.15 12.4851 108.864 12.2209C108.579 11.9567 108.167 11.8246 107.631 11.8246C107.064 11.8246 106.614 11.9482 106.282 12.1953C105.954 12.4425 105.732 12.7344 105.617 13.071L103.456 12.7642C103.627 12.1676 103.908 11.669 104.3 11.2685C104.692 10.8636 105.172 10.5611 105.738 10.3608C106.305 10.1562 106.932 10.054 107.618 10.054C108.091 10.054 108.562 10.1094 109.03 10.2202C109.499 10.331 109.927 10.5142 110.315 10.7699C110.703 11.0213 111.014 11.3643 111.248 11.799C111.487 12.2337 111.606 12.777 111.606 13.429V20H109.382V18.6513H109.305C109.165 18.924 108.966 19.1797 108.711 19.4183C108.459 19.6527 108.142 19.8423 107.758 19.9872C107.379 20.1278 106.934 20.1982 106.422 20.1982ZM107.023 18.4979C107.488 18.4979 107.89 18.4062 108.231 18.223C108.572 18.0355 108.834 17.7884 109.018 17.4815C109.205 17.1747 109.299 16.8402 109.299 16.478V15.321C109.226 15.3807 109.103 15.4361 108.928 15.4872C108.758 15.5384 108.566 15.5831 108.353 15.6214C108.14 15.6598 107.929 15.6939 107.72 15.7237C107.511 15.7536 107.33 15.7791 107.177 15.8004C106.831 15.8473 106.523 15.924 106.25 16.0305C105.977 16.1371 105.762 16.2862 105.604 16.478C105.447 16.6655 105.368 16.9084 105.368 17.2067C105.368 17.6328 105.523 17.9545 105.834 18.1719C106.145 18.3892 106.542 18.4979 107.023 18.4979ZM118.836 10.1818V11.9716H113.192V10.1818H118.836ZM114.585 7.82955H116.899V17.0469C116.899 17.358 116.946 17.5966 117.04 17.7628C117.138 17.9247 117.265 18.0355 117.423 18.0952C117.581 18.1548 117.756 18.1847 117.947 18.1847C118.092 18.1847 118.224 18.174 118.344 18.1527C118.467 18.1314 118.561 18.1122 118.625 18.0952L119.015 19.9041C118.891 19.9467 118.714 19.9936 118.484 20.0447C118.258 20.0959 117.981 20.1257 117.653 20.1342C117.074 20.1513 116.552 20.0639 116.087 19.8722C115.623 19.6761 115.254 19.3736 114.981 18.9645C114.713 18.5554 114.581 18.044 114.585 17.4304V7.82955ZM125.674 10.1818V11.9716H120.029V10.1818H125.674ZM121.423 7.82955H123.737V17.0469C123.737 17.358 123.784 17.5966 123.877 17.7628C123.975 17.9247 124.103 18.0355 124.261 18.0952C124.419 18.1548 124.593 18.1847 124.785 18.1847C124.93 18.1847 125.062 18.174 125.181 18.1527C125.305 18.1314 125.399 18.1122 125.463 18.0952L125.853 19.9041C125.729 19.9467 125.552 19.9936 125.322 20.0447C125.096 20.0959 124.819 20.1257 124.491 20.1342C123.912 20.1513 123.39 20.0639 122.925 19.8722C122.461 19.6761 122.092 19.3736 121.819 18.9645C121.551 18.5554 121.419 18.044 121.423 17.4304V7.82955ZM131.85 20.1918C130.866 20.1918 130.015 19.9872 129.3 19.5781C128.588 19.1648 128.04 18.581 127.657 17.8267C127.273 17.0682 127.081 16.1754 127.081 15.1484C127.081 14.1385 127.273 13.2521 127.657 12.4893C128.045 11.7223 128.586 11.1257 129.28 10.6996C129.975 10.2692 130.791 10.054 131.729 10.054C132.334 10.054 132.905 10.152 133.442 10.348C133.983 10.5398 134.46 10.8381 134.873 11.2429C135.291 11.6477 135.619 12.1634 135.858 12.7898C136.096 13.4119 136.216 14.1534 136.216 15.0142V15.7237H128.168V14.1641H133.998C133.993 13.7209 133.898 13.3267 133.71 12.9815C133.523 12.6321 133.26 12.3572 132.924 12.157C132.591 11.9567 132.204 11.8565 131.76 11.8565C131.287 11.8565 130.872 11.9716 130.514 12.2017C130.156 12.4276 129.877 12.7259 129.677 13.0966C129.481 13.4631 129.381 13.8658 129.376 14.3047V15.6662C129.376 16.2372 129.481 16.7273 129.689 17.1364C129.898 17.5412 130.19 17.8523 130.565 18.0696C130.94 18.2827 131.379 18.3892 131.882 18.3892C132.219 18.3892 132.523 18.3423 132.796 18.2486C133.069 18.1506 133.305 18.0078 133.506 17.8203C133.706 17.6328 133.857 17.4006 133.959 17.1236L136.12 17.3665C135.983 17.9375 135.724 18.4361 135.34 18.8622C134.961 19.2841 134.475 19.6122 133.883 19.8466C133.29 20.0767 132.613 20.1918 131.85 20.1918ZM138.173 20V10.1818H140.417V11.8182H140.519C140.698 11.2514 141.005 10.8146 141.44 10.5078C141.879 10.1967 142.379 10.0412 142.942 10.0412C143.07 10.0412 143.212 10.0476 143.37 10.0604C143.532 10.0689 143.666 10.0838 143.773 10.1051V12.2337C143.675 12.1996 143.519 12.1697 143.306 12.1442C143.097 12.1143 142.895 12.0994 142.699 12.0994C142.277 12.0994 141.898 12.1911 141.561 12.3743C141.229 12.5533 140.967 12.8026 140.775 13.1222C140.583 13.4418 140.487 13.8104 140.487 14.228V20H138.173ZM147.624 14.2472V20H145.31V10.1818H147.522V11.8501H147.637C147.863 11.3004 148.223 10.8636 148.717 10.5398C149.216 10.2159 149.831 10.054 150.564 10.054C151.242 10.054 151.832 10.1989 152.335 10.4886C152.842 10.7784 153.234 11.1982 153.511 11.7479C153.792 12.2976 153.931 12.9645 153.926 13.7486V20H151.613V14.1065C151.613 13.4503 151.442 12.9368 151.101 12.5661C150.765 12.1953 150.298 12.0099 149.701 12.0099C149.297 12.0099 148.936 12.0994 148.621 12.2784C148.31 12.4531 148.065 12.7067 147.886 13.0391C147.711 13.3714 147.624 13.7741 147.624 14.2472ZM164.039 12.777L161.929 13.0071C161.87 12.794 161.765 12.5938 161.616 12.4062C161.471 12.2188 161.275 12.0675 161.028 11.9524C160.781 11.8374 160.478 11.7798 160.12 11.7798C159.639 11.7798 159.234 11.8842 158.906 12.093C158.582 12.3018 158.422 12.5724 158.426 12.9048C158.422 13.1903 158.527 13.4226 158.74 13.6016C158.957 13.7805 159.315 13.9276 159.814 14.0426L161.488 14.4006C162.417 14.6009 163.108 14.9183 163.559 15.353C164.015 15.7876 164.245 16.3565 164.25 17.0597C164.245 17.6776 164.064 18.223 163.706 18.696C163.353 19.1648 162.86 19.5312 162.23 19.7955C161.599 20.0597 160.875 20.1918 160.056 20.1918C158.855 20.1918 157.887 19.9403 157.154 19.4375C156.422 18.9304 155.985 18.2251 155.844 17.3217L158.1 17.1044C158.203 17.5476 158.42 17.8821 158.752 18.108C159.085 18.3338 159.517 18.4467 160.05 18.4467C160.6 18.4467 161.041 18.3338 161.373 18.108C161.71 17.8821 161.878 17.603 161.878 17.2706C161.878 16.9893 161.77 16.7571 161.552 16.5739C161.339 16.3906 161.007 16.25 160.555 16.152L158.88 15.8004C157.939 15.6044 157.242 15.2741 156.79 14.8097C156.338 14.3409 156.115 13.7486 156.119 13.0327C156.115 12.4276 156.279 11.9034 156.611 11.4602C156.948 11.0128 157.414 10.6676 158.011 10.4247C158.612 10.1776 159.304 10.054 160.088 10.054C161.239 10.054 162.145 10.299 162.805 10.7891C163.47 11.2791 163.881 11.9418 164.039 12.777Z" fill="#111928"/>
</svg>
